<?xml version="1.0" encoding="iso-8859-1"?>
<!-- Generator: Adobe Illustrator 16.0.0, SVG Export Plug-In . SVG Version: 6.00 Build 0)  -->
<!DOCTYPE svg PUBLIC "-//W3C//DTD SVG 1.1//EN" "http://www.w3.org/Graphics/SVG/1.1/DTD/svg11.dtd">
<svg version="1.1" id="Capa_1" xmlns="http://www.w3.org/2000/svg" xmlns:xlink="http://www.w3.org/1999/xlink" x="0px" y="0px"
	 width="377.343px" height="377.343px" viewBox="0 0 377.343 377.343" style="enable-background:new 0 0 377.343 377.343;"
	 xml:space="preserve">
<g>
	<path d="M112.768,103.587h33.781v35.486h-33.781V103.587z M112.768,204.084h33.781v-35.492h-33.781V204.084z M321.407,73.223
		v230.911c0,10.866-8.843,19.71-19.71,19.71H75.651c-10.875,0-19.718-8.844-19.718-19.71V73.223c0-10.87,8.843-19.713,19.718-19.713
		h226.046C312.564,53.505,321.407,62.353,321.407,73.223z M179.549,103.486c0-7.77-3.33-14.602-9.981-20.484
		c-6.651-5.885-14.327-8.821-23.014-8.821H112.88c-8.764,0-16.463,2.936-23.07,8.821c-6.619,5.882-9.922,12.742-9.922,20.585v26.364
		c0,5.545,1.186,9.939,3.575,13.19c2.376,3.245,5.385,6.829,9.009,10.747c-3.624,3.855-6.64,7.401-9.009,10.646
		c-2.389,3.245-3.575,7.639-3.575,13.185v26.473c0,7.913,3.304,14.774,9.922,20.586c6.614,5.812,14.306,8.723,23.07,8.723h33.674
		c8.693,0,16.367-2.911,23.014-8.723c6.656-5.812,9.981-12.673,9.981-20.586v-26.473c0-5.48-1.229-9.855-3.689-13.127
		c-2.454-3.284-5.491-6.854-9.126-10.704c3.631-3.918,6.673-7.502,9.126-10.747c2.46-3.245,3.689-7.671,3.689-13.286V103.486z
		 M374.121,35.439v306.464c0,19.573-15.875,35.439-35.444,35.439H38.665c-19.569,0-35.443-15.866-35.443-35.439V35.439
		C3.221,15.869,19.096,0,38.665,0h300.012C358.246,0.005,374.121,15.874,374.121,35.439z M335.382,73.223
		c0-18.569-15.113-33.688-33.685-33.688H75.651c-18.574,0-33.693,15.114-33.693,33.688v230.911
		c0,18.565,15.114,33.685,33.693,33.685h226.046c18.566,0,33.685-15.113,33.685-33.685V73.223z"/>
</g>
<g>
</g>
<g>
</g>
<g>
</g>
<g>
</g>
<g>
</g>
<g>
</g>
<g>
</g>
<g>
</g>
<g>
</g>
<g>
</g>
<g>
</g>
<g>
</g>
<g>
</g>
<g>
</g>
<g>
</g>
</svg>
